<svg id="Layer_1" data-name="Layer 1" xmlns="http://www.w3.org/2000/svg" viewBox="0 0 419.91 196.85"><defs><style>.cls-1{fill:none;stroke:#f1f2f2;stroke-miterlimit:10;stroke-width:12px;}.cls-2,.cls-3,.cls-4{fill:#f1f2f2;}.cls-3{font-size:102.37px;}.cls-3,.cls-4{font-family:Roboto-Bold, Roboto;font-weight:700;}.cls-4{font-size:75.01px;}.cls-5{letter-spacing:-0.03em;}.cls-6{letter-spacing:-0.01em;}</style></defs><title>logoBeta</title><circle class="cls-1" cx="71.07" cy="83.8" r="65.07"/><rect class="cls-2" x="207.55" y="371.18" width="89.8" height="24" rx="12" ry="12" transform="translate(234.84 -287.85) rotate(45)"/><path class="cls-2" d="M184.57,290.38H172.66a1.32,1.32,0,1,0,0,2.65h11.91a1.32,1.32,0,1,0,0-2.65Z" transform="translate(-110.04 -221.58)"/><path class="cls-2" d="M201.77,290.38h-4a1.32,1.32,0,1,0,0,2.65h4a1.32,1.32,0,1,0,0-2.65Z" transform="translate(-110.04 -221.58)"/><path class="cls-2" d="M192.51,290.38h-2.65a1.32,1.32,0,1,0,0,2.65h2.65a1.32,1.32,0,1,0,0-2.65Z" transform="translate(-110.04 -221.58)"/><path class="cls-2" d="M201.73,297H180.6a1.32,1.32,0,1,0,0,2.65h21.13a1.32,1.32,0,0,0,0-2.65Z" transform="translate(-110.04 -221.58)"/><path class="cls-2" d="M175.27,297h-2.61a1.32,1.32,0,0,0,0,2.65h2.61a1.32,1.32,0,0,0,0-2.65Z" transform="translate(-110.04 -221.58)"/><path class="cls-2" d="M184.53,303.61H172.66a1.32,1.32,0,0,0,0,2.65h11.87a1.32,1.32,0,1,0,0-2.65Z" transform="translate(-110.04 -221.58)"/><path class="cls-2" d="M201.77,303.61h-4a1.32,1.32,0,1,0,0,2.65h4a1.32,1.32,0,1,0,0-2.65Z" transform="translate(-110.04 -221.58)"/><path class="cls-2" d="M192.51,303.61h-2.65a1.32,1.32,0,1,0,0,2.65h2.65a1.32,1.32,0,1,0,0-2.65Z" transform="translate(-110.04 -221.58)"/><path class="cls-2" d="M184.57,316.84H172.66a1.32,1.32,0,0,0,0,2.65h11.91a1.32,1.32,0,0,0,0-2.65Z" transform="translate(-110.04 -221.58)"/><path class="cls-2" d="M201.77,316.84h-4a1.32,1.32,0,1,0,0,2.65h4a1.32,1.32,0,1,0,0-2.65Z" transform="translate(-110.04 -221.58)"/><path class="cls-2" d="M192.51,316.84h-2.65a1.32,1.32,0,1,0,0,2.65h2.65a1.32,1.32,0,0,0,0-2.65Z" transform="translate(-110.04 -221.58)"/><path class="cls-2" d="M201.77,310.23H180.6a1.32,1.32,0,0,0,0,2.65h21.17a1.32,1.32,0,0,0,0-2.65Z" transform="translate(-110.04 -221.58)"/><path class="cls-2" d="M175.31,310.23h-2.65a1.32,1.32,0,0,0,0,2.65h2.65a1.32,1.32,0,0,0,0-2.65Z" transform="translate(-110.04 -221.58)"/><path class="cls-2" d="M184.57,330.07H172.66a1.32,1.32,0,0,0,0,2.65h11.91a1.32,1.32,0,0,0,0-2.65Z" transform="translate(-110.04 -221.58)"/><path class="cls-2" d="M201.77,330.07h-4a1.32,1.32,0,1,0,0,2.65h4a1.32,1.32,0,1,0,0-2.65Z" transform="translate(-110.04 -221.58)"/><path class="cls-2" d="M192.51,330.07h-2.65a1.32,1.32,0,1,0,0,2.65h2.65a1.32,1.32,0,0,0,0-2.65Z" transform="translate(-110.04 -221.58)"/><path class="cls-2" d="M201.77,323.46H180.6a1.32,1.32,0,0,0,0,2.65h21.17a1.32,1.32,0,0,0,0-2.65Z" transform="translate(-110.04 -221.58)"/><path class="cls-2" d="M175.31,323.46h-2.65a1.32,1.32,0,0,0,0,2.65h2.65a1.32,1.32,0,0,0,0-2.65Z" transform="translate(-110.04 -221.58)"/><path class="cls-2" d="M202.65,283.76H162.08a1.32,1.32,0,0,0,0,2.65,4,4,0,0,1,4,4V338a1.32,1.32,0,0,0,.26.79l4,5.29a1.37,1.37,0,0,0,2.12,0l2.91-3.88,2.91,3.88a1.37,1.37,0,0,0,2.12,0l2.91-3.88,2.91,3.88a1.37,1.37,0,0,0,2.12,0l2.91-3.88,2.91,3.88a1.37,1.37,0,0,0,2.12,0l2.91-3.88L202,344.1a1.32,1.32,0,0,0,2.12,0l4-5.29a1.32,1.32,0,0,0,.26-.79V289.5A5.74,5.74,0,0,0,202.65,283.76Zm3.09,53.81-2.65,3.53-2.91-3.88a1.32,1.32,0,0,0-2.12,0l-2.91,3.88-2.91-3.88a1.37,1.37,0,0,0-2.12,0l-2.91,3.88-2.91-3.88a1.37,1.37,0,0,0-2.12,0l-2.91,3.88-2.91-3.88a1.37,1.37,0,0,0-2.12,0l-2.91,3.88-2.65-3.53V290.38a6.58,6.58,0,0,0-1.33-4h35.29a3.09,3.09,0,0,1,3.09,3.09v48.07Z" transform="translate(-110.04 -221.58)"/><path class="cls-2" d="M187,271.06l-4-5.29a1.37,1.37,0,0,0-2.12,0L178,269.65,175,265.77a1.37,1.37,0,0,0-2.12,0L170,269.65l-2.91-3.88a1.37,1.37,0,0,0-2.12,0l-2.91,3.88-2.91-3.88a1.37,1.37,0,0,0-2.12,0l-2.91,3.88-2.91-3.88a1.37,1.37,0,0,0-2.12,0l-4,5.29a1.32,1.32,0,0,0-.26.79v43.66a6.62,6.62,0,1,0,13.23,0V290.38a4,4,0,0,1,4-4H185.9a1.32,1.32,0,0,0,1.32-1.32V271.85A1.32,1.32,0,0,0,187,271.06Zm-2.38,12.7H162.08a6.62,6.62,0,0,0-6.62,6.62v25.14a4,4,0,1,1-7.94,0V272.3l2.65-3.53,2.91,3.88a1.37,1.37,0,0,0,2.12,0l2.91-3.88,2.91,3.88a1.37,1.37,0,0,0,2.12,0l2.91-3.88,2.91,3.88a1.37,1.37,0,0,0,2.12,0l2.91-3.88,2.91,3.88a1.37,1.37,0,0,0,2.12,0l2.91-3.88,2.65,3.53v11.47Z" transform="translate(-110.04 -221.58)"/><text class="cls-3" transform="translate(159.21 87.57)">Bill</text><text class="cls-4" transform="translate(162.31 143.89)"><tspan class="cls-5">T</tspan><tspan class="cls-6" x="44.03" y="0">r</tspan><tspan x="70.29" y="0">acker</tspan></text></svg>